<svg width="1200" height="630" viewBox="0 0 1200 630" xmlns="http://www.w3.org/2000/svg">
  <defs>
    <radialGradient id="bg" cx="80%" cy="6%" r="115%">
      <stop offset="0" stop-color="#16495e"/>
      <stop offset="45%" stop-color="#0e2e3e"/>
      <stop offset="100%" stop-color="#0a2431"/>
    </radialGradient>
  </defs>
  <rect width="1200" height="630" fill="url(#bg)"/>
  <path d="M0 470 C 260 400 460 410 700 460 S 1050 520 1200 450 V630 H0 Z" fill="#0a2431" opacity=".65"/>
  <path d="M0 525 C 300 478 520 486 780 522 S 1120 560 1200 522 V630 H0 Z" fill="#08202c"/>

  <!-- logo mark + brand -->
  <g transform="translate(84 70) scale(1.45)">
    <rect x="1.5" y="1.5" width="61" height="61" rx="15" fill="#0e2e3e"/>
    <rect x="1.5" y="1.5" width="61" height="61" rx="15" fill="none" stroke="#f2a541" stroke-opacity=".4" stroke-width="1.5"/>
    <path d="M6 44c6-9 11-9 17-2 5 6 10 6 15-1 4-5 8-6 14-2v20a5 5 0 0 1-5 5H11a5 5 0 0 1-5-5z" fill="#2f6f4e"/>
    <path d="M6 50c7-7 12-6 18 0 5 5 11 4 16-2 4-4 9-5 16-1v10a5 5 0 0 1-5 5H11a5 5 0 0 1-5-5z" fill="#255c40"/>
    <circle cx="40.5" cy="20" r="8.5" fill="#f2a541"/>
    <circle cx="40.5" cy="20" r="3.1" fill="#0c2231"/>
  </g>
  <text x="190" y="140" font-family="system-ui,-apple-system,Segoe UI,Roboto,Helvetica,Arial,sans-serif" font-size="42" font-weight="800" fill="#ffffff" letter-spacing="-1">Chiddingfold Taxis</text>

  <text x="88" y="286" font-family="system-ui,-apple-system,Segoe UI,Roboto,Helvetica,Arial,sans-serif" font-size="66" font-weight="800" fill="#ffffff" letter-spacing="-2">Reliable airport transfers</text>
  <text x="88" y="360" font-family="system-ui,-apple-system,Segoe UI,Roboto,Helvetica,Arial,sans-serif" font-size="66" font-weight="800" fill="#ffffff" letter-spacing="-2">&amp; local taxis, 24/7</text>
  <text x="90" y="418" font-family="system-ui,-apple-system,Segoe UI,Roboto,Helvetica,Arial,sans-serif" font-size="34" font-weight="600" fill="#cfe2e7">Chiddingfold · Godalming · Haslemere · Surrey Hills</text>

  <rect x="88" y="470" width="452" height="82" rx="41" fill="#f4a52a"/>
  <text x="314" y="524" text-anchor="middle" font-family="system-ui,-apple-system,Segoe UI,Roboto,Helvetica,Arial,sans-serif" font-size="40" font-weight="800" fill="#241500">Call 01483 387 475</text>
</svg>
